<svg width="30" height="30" viewBox="0 0 30 30" fill="none" xmlns="http://www.w3.org/2000/svg">
<path d="M25.1166 15.973C24.2769 16.196 23.4119 16.3088 22.5431 16.3088C19.8977 16.3088 17.4134 15.2803 15.5473 13.4143C14.322 12.1819 13.441 10.6498 12.9923 8.97077C12.5436 7.29175 12.5427 5.52445 12.9899 3.84502C13.0458 3.63504 13.0454 3.41407 12.9889 3.20427C12.9324 2.99447 12.8217 2.80322 12.6679 2.6497C12.5141 2.49619 12.3227 2.38581 12.1128 2.32963C11.9029 2.27346 11.6819 2.27346 11.4721 2.32965C9.36956 2.88993 7.45137 3.99325 5.90991 5.52891C1.08004 10.3588 1.08004 18.2206 5.90991 23.053C7.05793 24.2074 8.42351 25.1227 9.92761 25.7458C11.4317 26.369 13.0445 26.6877 14.6726 26.6834C16.3002 26.688 17.9126 26.3696 19.4163 25.7466C20.92 25.1236 22.2852 24.2085 23.4327 23.0542C24.9695 21.5124 26.0734 19.5932 26.6332 17.4896C26.6888 17.2797 26.6884 17.0589 26.6319 16.8492C26.5754 16.6396 26.4649 16.4484 26.3113 16.2949C26.1578 16.1413 25.9666 16.0308 25.757 15.9743C25.5473 15.9178 25.3265 15.9174 25.1166 15.973ZM21.6819 21.3022C20.7637 22.2254 19.6716 22.9573 18.4686 23.4557C17.2657 23.954 15.9759 24.2088 14.6738 24.2053C13.3713 24.2085 12.081 23.9535 10.8777 23.455C9.67437 22.9565 8.5818 22.2243 7.66318 21.3009C3.79978 17.4363 3.79978 11.1468 7.66318 7.28218C8.40972 6.53648 9.2716 5.91601 10.2156 5.44465C10.0775 7.22774 10.3259 9.01964 10.9439 10.6979C11.5619 12.3761 12.5349 13.9012 13.7965 15.1688C15.0614 16.4344 16.586 17.4101 18.2649 18.0286C19.9439 18.6471 21.7371 18.8935 23.5207 18.7509C23.0468 19.6934 22.4261 20.5545 21.6819 21.3022Z" fill="#FBFBFB" fill-opacity="0.8"/>
</svg>
